<svg width="203" height="123" viewBox="0 0 203 123" fill="none" xmlns="http://www.w3.org/2000/svg">
<g clip-path="url(#clip0_219_1160)">
<path fill-rule="evenodd" clip-rule="evenodd" d="M49.3774 83.5379H44.3609V97.4443L39.1825 101.32V83.5379H34.3262V103.592H38.6967L44.3609 99.3789V103.592H49.3774V83.5379Z" fill="white"/>
<path fill-rule="evenodd" clip-rule="evenodd" d="M62.003 83.5379H57.1467V103.592H67.3434V102.136H62.003V83.5379Z" fill="white"/>
<path fill-rule="evenodd" clip-rule="evenodd" d="M26.5568 103.587H21.7022V82.0818L16.3618 85.9578V103.587H11.6675V82.0818L6.32709 85.9578V103.587H1.47083V79.1715H6.32709V83.6997L12.3152 79.1715H16.3635V83.6997L22.5119 79.1715H26.5602L26.5568 103.587Z" fill="white"/>
<path d="M87.4111 83.5379H92.2674V103.427H87.4111V83.5379Z" fill="white"/>
<path fill-rule="evenodd" clip-rule="evenodd" d="M67.1815 83.5379H83.0373V84.9939H77.54V103.592H72.6838V84.9939H67.1815V83.5379Z" fill="white"/>
<path fill-rule="evenodd" clip-rule="evenodd" d="M100.035 82.4054C100.035 80.4657 102.3 79.1715 104.567 79.1715H112.011V83.5379H110.07V80.9494H104.891V101.809H107.157C107.88 101.827 108.582 101.57 109.123 101.091C109.664 100.611 110.002 99.9447 110.07 99.2256V97.7695H112.011V99.2256C111.895 100.414 111.326 101.513 110.423 102.296C109.519 103.078 108.35 103.484 107.155 103.43H100.035V82.4054Z" fill="white"/>
<path fill-rule="evenodd" clip-rule="evenodd" d="M117.515 83.5379H122.37V92.4308L127.548 88.5548V83.5379H132.565V103.592H127.55V90.4911L122.372 94.3671V103.592H117.515V83.5379Z" fill="white"/>
<path d="M162.995 83.5379H167.851V103.427H162.995V83.5379Z" fill="white"/>
<path fill-rule="evenodd" clip-rule="evenodd" d="M180.475 84.9939V102.294H181.932C183.39 102.294 184.521 101.485 184.521 100.355V98.7368H186.301V100.355C186.301 102.294 184.198 103.589 181.93 103.589H175.78V86.1247C175.78 84.6686 177.722 83.6996 178.855 83.6996H186.301V87.4189H184.521V84.9939H180.475Z" fill="white"/>
<path fill-rule="evenodd" clip-rule="evenodd" d="M192.127 83.5379H202.324V84.9939H196.983V91.4584H201.354V92.7526H196.983V102.131H202.324V103.592H192.127V83.5379Z" fill="white"/>
<path fill-rule="evenodd" clip-rule="evenodd" d="M145.03 84.9939H150.371V102.294H145.03V84.9939ZM151.828 83.5379H143.731C141.952 83.5379 140.333 84.6703 140.333 86.1247V101C140.333 102.294 141.628 103.587 143.731 103.587H151.985C153.442 103.587 155.222 102.293 155.222 101V86.1247C155.225 84.8321 153.608 83.5379 151.826 83.5379H151.828Z" fill="white"/>
<path fill-rule="evenodd" clip-rule="evenodd" d="M101.169 1.07343L86.4413 16.7577L101.169 73.1906V1.07343Z" fill="#CC6B39"/>
<path d="M101.169 1.07343L86.4413 16.7577L101.169 73.1906V1.07343Z" stroke="#CC6B39" stroke-width="1.30456" stroke-miterlimit="3.864"/>
<path fill-rule="evenodd" clip-rule="evenodd" d="M28.4983 16.596L30.9256 35.0289L98.4158 73.3508L28.4983 16.596Z" fill="#822A85"/>
<path d="M28.4983 16.596L30.9256 35.0289L98.4158 73.3508L28.4983 16.596Z" stroke="#822A85" stroke-width="1.30456" stroke-miterlimit="3.864"/>
<path fill-rule="evenodd" clip-rule="evenodd" d="M98.4158 73.3508L53.2604 24.0345L28.4983 16.596L98.4158 73.3508Z" fill="#EC008C"/>
<path d="M98.4158 73.3508L53.2604 24.0345L28.4983 16.596L98.4158 73.3508Z" stroke="#EC008C" stroke-width="1.30456" stroke-miterlimit="3.864"/>
<path fill-rule="evenodd" clip-rule="evenodd" d="M95.9902 73.6743L27.0426 36.3231L0.82312 36.9702L95.9902 73.6743Z" fill="#5F6DB3"/>
<path d="M95.9902 73.6743L27.0426 36.3231L0.82312 36.9702L95.9902 73.6743Z" stroke="#5F6DB3" stroke-width="1.30456" stroke-miterlimit="3.864"/>
<path fill-rule="evenodd" clip-rule="evenodd" d="M0.82312 36.9686L7.29703 50.875L95.9902 73.6743L0.82312 36.9686Z" fill="#46065C"/>
<path d="M0.82312 36.9686L7.29703 50.875L95.9902 73.6743L0.82312 36.9686Z" stroke="#46065C" stroke-width="1.30456" stroke-miterlimit="3.864"/>
<path fill-rule="evenodd" clip-rule="evenodd" d="M63.4587 4.95279L57.4706 22.7403L99.8749 73.1889L63.4587 4.95279Z" fill="#B82837"/>
<path d="M63.4587 4.95279L57.4706 22.7403L99.8749 73.189L63.4587 4.95279Z" stroke="#B82837" stroke-width="1.30456" stroke-miterlimit="3.864"/>
<path fill-rule="evenodd" clip-rule="evenodd" d="M99.8749 73.1889L81.7486 17.4082L63.4587 4.95279L99.8749 73.1889Z" fill="#ED1C24"/>
<path d="M99.8749 73.189L81.7486 17.4082L63.4587 4.95279L99.8749 73.189Z" stroke="#ED1C24" stroke-width="1.30456" stroke-miterlimit="3.864"/>
<path fill-rule="evenodd" clip-rule="evenodd" d="M101.169 1.07343L115.736 16.7577L101.169 73.1906V1.07343Z" fill="#F37021"/>
<path d="M101.169 1.07343L115.736 16.7577L101.169 73.1906V1.07343Z" stroke="#F37021" stroke-width="1.30456" stroke-miterlimit="3.864"/>
<path fill-rule="evenodd" clip-rule="evenodd" d="M173.515 16.596L171.25 35.0289L104.082 73.3508L173.515 16.596Z" fill="#50B848"/>
<path d="M173.515 16.596L171.25 35.0289L104.082 73.3508L173.515 16.596Z" stroke="#50B848" stroke-width="1.30456" stroke-miterlimit="3.864"/>
<path fill-rule="evenodd" clip-rule="evenodd" d="M104.082 73.3508L148.589 24.0345L173.515 16.596L104.082 73.3508Z" fill="#639144"/>
<path d="M104.082 73.3508L148.589 24.0345L173.515 16.596L104.082 73.3508Z" stroke="#639144" stroke-width="1.30456" stroke-miterlimit="3.864"/>
<path fill-rule="evenodd" clip-rule="evenodd" d="M106.347 73.6743L175.619 36.3231L202.162 36.8085L106.347 73.6743Z" fill="#007196"/>
<path d="M106.347 73.6743L175.619 36.3231L202.162 36.8085L106.347 73.6743Z" stroke="#007196" stroke-width="1.30456" stroke-miterlimit="3.864"/>
<path fill-rule="evenodd" clip-rule="evenodd" d="M202.157 36.8085L195.359 50.8767L106.347 73.676L202.157 36.8085Z" fill="#00ABBD"/>
<path d="M202.157 36.8085L195.359 50.8767L106.347 73.676L202.157 36.8085Z" stroke="#00ABBD" stroke-width="1.30456" stroke-miterlimit="3.864"/>
<path fill-rule="evenodd" clip-rule="evenodd" d="M138.224 4.95279L144.05 22.7403L102.464 73.1889L138.224 4.95279Z" fill="#FDB933"/>
<path d="M138.224 4.95279L144.05 22.7403L102.464 73.189L138.224 4.95279Z" stroke="#FDB933" stroke-width="1.30456" stroke-miterlimit="3.864"/>
<path fill-rule="evenodd" clip-rule="evenodd" d="M102.464 73.1889L120.59 17.4082L138.224 4.95279L102.464 73.1889Z" fill="#E28F38"/>
<path d="M102.464 73.189L120.59 17.4082L138.224 4.95279L102.464 73.189Z" stroke="#E28F38" stroke-width="1.30456" stroke-miterlimit="3.864"/>
<path fill-rule="evenodd" clip-rule="evenodd" d="M36.4296 113.129V122.83H39.8284V121.698H37.725V118.464H39.6665V117.332H37.725V114.261H39.8284V113.129H36.4296Z" fill="white"/>
<path fill-rule="evenodd" clip-rule="evenodd" d="M46.4643 115.392V115.223L48.7297 122.824H50.0251V113.129H48.7297V116.524L49.0535 120.4V120.569L46.6263 113.129H45.4927V122.83H46.7882V119.273L46.6195 116.039L46.4643 115.392Z" fill="white"/>
<path fill-rule="evenodd" clip-rule="evenodd" d="M57.4706 117.333V114.099H57.6393C58.6109 114.099 58.7728 114.908 58.7728 115.717C58.7644 116.85 58.4405 117.495 57.4706 117.333ZM56.1819 122.83H57.4774V117.979L59.257 122.83H60.5524L58.7644 117.979C59.8979 117.81 60.0598 116.363 60.0598 115.392C60.0598 112.967 58.6025 112.805 57.6326 112.805H56.0132V122.83H56.1819Z" fill="white"/>
<path d="M66.048 113.129H67.3434V122.992H66.048V113.129Z" fill="white"/>
<path fill-rule="evenodd" clip-rule="evenodd" d="M77.3798 113.29C77.0358 113.088 76.6456 112.976 76.2463 112.967C73.657 112.967 73.3332 116.201 73.3332 118.14C73.3332 120.242 73.6571 122.991 76.4082 122.991C76.5841 123.013 76.7627 122.995 76.9309 122.939C77.0991 122.883 77.2526 122.79 77.3798 122.667V121.534C77.1318 121.667 76.8507 121.726 76.5702 121.703C74.7906 121.703 74.6287 119.278 74.6287 117.984C74.6287 116.689 74.6287 114.108 76.4082 114.108C76.7085 114.114 76.9963 114.229 77.2179 114.431V113.299L77.3798 113.29Z" fill="white"/>
<path fill-rule="evenodd" clip-rule="evenodd" d="M82.8804 113.129V122.83H84.1759V117.98H86.1174V122.83H87.4129V113.129H86.1174V116.848H84.1759V113.129H82.8804Z" fill="white"/>
<path d="M93.5612 113.129H94.8567V122.992H93.5612V113.129Z" fill="white"/>
<path fill-rule="evenodd" clip-rule="evenodd" d="M102.14 115.392V115.223L104.406 122.824H105.539V113.129H104.244V116.524L104.568 120.4V120.569L102.302 113.129H101.007V122.83H102.302V119.273L102.134 116.039L102.14 115.392Z" fill="white"/>
<path fill-rule="evenodd" clip-rule="evenodd" d="M114.116 117.657V118.789H115.25V119.275C115.25 121.538 114.602 121.7 114.116 121.7C113.469 121.7 112.983 121.376 112.983 117.98C112.983 115.555 112.983 114.104 114.116 114.104C114.926 114.104 115.088 114.752 115.25 115.399L116.545 114.913C116.515 114.626 116.428 114.347 116.289 114.093C116.15 113.839 115.963 113.616 115.737 113.435C115.511 113.254 115.252 113.119 114.973 113.039C114.695 112.959 114.404 112.934 114.116 112.967C111.858 112.967 111.689 115.23 111.689 117.979C111.689 120.727 112.013 122.991 114.278 122.991C116.868 122.991 116.544 119.757 116.544 117.817V117.648L114.116 117.657Z" fill="white"/>
<path fill-rule="evenodd" clip-rule="evenodd" d="M129.492 113.129V122.83H133.052V121.698H130.787V113.129H129.492Z" fill="white"/>
<path d="M138.394 113.129H139.69V122.992H138.394V113.129Z" fill="white"/>
<path fill-rule="evenodd" clip-rule="evenodd" d="M145.03 113.129L146.972 122.83H148.105L149.885 113.129H148.751L148.104 116.524L147.618 119.758V120.405H147.449L146.326 113.129H145.03Z" fill="white"/>
<path fill-rule="evenodd" clip-rule="evenodd" d="M155.387 113.129V122.83H158.948V121.698H156.683V118.464H158.624V117.332H156.683V114.261H158.948V113.129H155.387Z" fill="white"/>
<path fill-rule="evenodd" clip-rule="evenodd" d="M167.527 113.29C167.095 113.014 166.578 112.9 166.07 112.967C165.745 112.97 165.424 113.041 165.129 113.177C164.834 113.312 164.57 113.509 164.357 113.753C164.143 113.997 163.983 114.284 163.888 114.594C163.792 114.905 163.764 115.232 163.804 115.554C163.804 118.14 166.555 118.464 166.555 120.405C166.555 121.214 166.232 121.7 165.422 121.7C164.943 121.713 164.478 121.538 164.126 121.214V122.509C164.541 122.835 165.056 123.007 165.584 122.994C165.909 122.991 166.229 122.919 166.524 122.784C166.82 122.648 167.083 122.452 167.297 122.208C167.511 121.963 167.671 121.677 167.766 121.366C167.861 121.056 167.889 120.729 167.849 120.407C167.846 119.843 167.714 119.287 167.461 118.782C167.208 118.277 166.842 117.837 166.392 117.497L165.42 116.364C165.285 116.212 165.186 116.031 165.13 115.835C165.074 115.639 165.062 115.433 165.096 115.232C165.084 114.912 165.194 114.6 165.405 114.359C165.616 114.118 165.911 113.967 166.23 113.938C166.443 113.932 166.654 113.972 166.85 114.056C167.046 114.139 167.221 114.265 167.363 114.423L167.527 113.29Z" fill="white"/>
</g>
<defs>
<clipPath id="clip0_219_1160">
<rect width="203" height="123" fill="white"/>
</clipPath>
</defs>
</svg>
