<?xml version="1.0" encoding="utf-8"?>
<!-- Generator: Adobe Illustrator 23.1.0, SVG Export Plug-In . SVG Version: 6.00 Build 0)  -->
<svg version="1.1" id="Layer_1" xmlns="http://www.w3.org/2000/svg" xmlns:xlink="http://www.w3.org/1999/xlink" x="0px" y="0px"
	 viewBox="0 0 360.79 192.86" style="enable-background:new 0 0 360.79 192.86;" xml:space="preserve">
<style type="text/css">
	.st0{fill:#30BBED;}
	.st1{fill:#1F2851;}
	.st2{fill:#E42071;}
</style>
<g>
	<g>
		<g>
			<g>
				<path class="st0" d="M156.47,47.37h-0.66h-8.74c-5.19,0-9.4,4.21-9.4,9.4v8.23h-8.23c-5.19,0-9.4,4.21-9.4,9.4v9.4h17.63v17.63
					h9.4c3.97,0,7.37-2.46,8.74-5.95c0.43-1.07,0.66-2.23,0.66-3.46v-8.23h8.23c5.19,0,9.4-4.21,9.4-9.4v-9.4h-17.63V47.37z"/>
			</g>
			<path class="st1" d="M284.33,8.13h-0.36h-17.09c-9.14,0-16.55,7.41-16.55,16.55v16.49v13.99v33.04v51.97h33.64v-35.12
				c0-9.3,7.55-16.85,16.85-16.85h12.57c8.92,0,16.16-7.23,16.16-16.16V55.15h-45.58c0-3.86,1.57-7.36,4.1-9.89
				c2.53-2.53,6.03-4.1,9.89-4.1h26.83c8.82,0,15.98-7.15,15.98-15.98V8.13H284.33z"/>
			<path class="st1" d="M217.23,55.63h-15.37v67.7c0,9.69,7.86,17.54,17.54,17.54h15.37v-67.7
				C234.78,63.49,226.92,55.63,217.23,55.63z"/>
			<path class="st1" d="M218.5,9.57h-16.64v23.27c0,8.99,7.28,16.28,16.28,16.28h16.64V25.85C234.78,16.86,227.49,9.57,218.5,9.57z"
				/>
			<path class="st1" d="M155.8,27.81v10.46h-18.15V9.39h-15.77c-10.17,0-18.42,8.25-18.42,18.42v112.34h17.81
				c9.04,0,16.37-7.32,16.37-16.37v-10.76h18.15v27.13h17.81c9.04,0,16.37-7.32,16.37-16.37V9.39h-15.77
				C164.05,9.39,155.8,17.64,155.8,27.81z M174.1,74.41c0,5.19-4.21,9.4-9.4,9.4h-8.23v8.23c0,1.23-0.23,2.39-0.66,3.46
				c-1.38,3.49-4.77,5.95-8.74,5.95h-9.4V83.82h-17.63v-9.4c0-5.19,4.21-9.4,9.4-9.4h8.23v-8.23c0-5.19,4.21-9.4,9.4-9.4h8.74h0.66
				v17.63h17.63V74.41z"/>
			<path class="st1" d="M75.98,16.32H60.91c-0.89,0-1.78,0.02-2.65,0.06v0.42h-4.63c-4.73,0.63-9.27,1.88-13.53,3.65
				C22.24,27.86,9.18,44.5,6.89,64.41v10.27v13.5v32.8c0,10.99,8.9,19.89,19.89,19.89H40.9v-0.36h-0.36V88.19v-13.5v-8.32
				c0-0.87,0.13-1.72,0.36-2.51c1.09-3.64,4.45-6.29,8.44-6.29c4.86,0,8.8,3.94,8.8,8.8v8.32h0.12v13.5v33.4
				c0,10.65,8.64,19.29,19.29,19.29h14.71V32.48h-0.12C92.14,23.56,84.91,16.32,75.98,16.32z"/>
			<path class="st1" d="M38.73,17.34c-2.85-5.07-8.29-8.49-14.53-8.49H6.89v41.26C9.18,33.4,22.17,20.09,38.73,17.34z"/>
		</g>
	</g>
	<g>
		<path class="st2" d="M23.16,176.8h-3.39l-1.35-3.47h-6.17l-1.27,3.47H7.67l6.01-15.28h3.3L23.16,176.8z M17.42,170.75l-2.13-5.67
			l-2.08,5.67H17.42z"/>
		<path class="st2" d="M30,165.73h1.64v-0.83c0-0.93,0.1-1.63,0.3-2.08c0.2-0.46,0.57-0.83,1.11-1.12c0.54-0.29,1.22-0.43,2.04-0.43
			c0.84,0,1.67,0.12,2.47,0.38l-0.4,2.04c-0.47-0.11-0.92-0.17-1.36-0.17c-0.43,0-0.74,0.1-0.92,0.3c-0.19,0.2-0.28,0.58-0.28,1.14
			v0.78h2.21v2.3H34.6v8.77h-2.96v-8.77H30V165.73z"/>
		<path class="st2" d="M43.59,165.73h3.15l2.67,7.86l2.61-7.86h3.06l-3.95,10.65l-0.7,1.93c-0.26,0.65-0.51,1.14-0.74,1.48
			c-0.24,0.34-0.51,0.62-0.81,0.83c-0.31,0.21-0.68,0.38-1.13,0.5c-0.45,0.12-0.95,0.18-1.51,0.18c-0.57,0-1.13-0.06-1.67-0.18
			l-0.26-2.29c0.46,0.09,0.88,0.13,1.25,0.13c0.69,0,1.2-0.2,1.53-0.6c0.33-0.4,0.58-0.91,0.76-1.53L43.59,165.73z"/>
		<path class="st2" d="M65.7,169.11l-2.68-0.48c0.3-1.07,0.82-1.86,1.56-2.38c0.74-0.51,1.83-0.77,3.28-0.77
			c1.32,0,2.3,0.15,2.95,0.46c0.65,0.31,1.1,0.7,1.36,1.18c0.26,0.48,0.39,1.35,0.39,2.62l-0.03,3.42c0,0.97,0.05,1.69,0.14,2.15
			c0.09,0.46,0.27,0.96,0.53,1.49h-2.93c-0.08-0.19-0.17-0.48-0.28-0.86c-0.05-0.17-0.08-0.29-0.11-0.34
			c-0.5,0.49-1.05,0.85-1.62,1.09c-0.58,0.24-1.19,0.37-1.84,0.37c-1.15,0-2.06-0.31-2.72-0.93c-0.66-0.62-0.99-1.4-0.99-2.35
			c0-0.62,0.15-1.18,0.45-1.67c0.3-0.49,0.73-0.86,1.27-1.13c0.54-0.26,1.33-0.49,2.35-0.68c1.38-0.26,2.34-0.5,2.87-0.72v-0.29
			c0-0.56-0.14-0.96-0.42-1.2c-0.28-0.24-0.81-0.36-1.59-0.36c-0.53,0-0.94,0.1-1.23,0.31C66.12,168.23,65.88,168.59,65.7,169.11z
			 M69.66,171.48c-0.38,0.13-0.98,0.27-1.8,0.45c-0.82,0.17-1.36,0.34-1.61,0.51c-0.39,0.27-0.58,0.61-0.58,1.03
			c0,0.41,0.15,0.76,0.46,1.06c0.31,0.3,0.7,0.45,1.18,0.45c0.53,0,1.04-0.17,1.53-0.52c0.36-0.26,0.59-0.59,0.71-0.97
			c0.08-0.25,0.12-0.73,0.12-1.43V171.48z"/>
		<path class="st2" d="M98.18,176.8v-6.43l-5.65-8.85h3.65l3.63,6.04l3.56-6.04h3.59l-5.67,8.87v6.41H98.18z"/>
		<path class="st2" d="M120.28,173.28l2.95,0.49c-0.38,1.07-0.98,1.88-1.79,2.44c-0.82,0.56-1.84,0.84-3.07,0.84
			c-1.94,0-3.38-0.63-4.32-1.89c-0.74-1.01-1.11-2.28-1.11-3.81c0-1.84,0.48-3.27,1.45-4.31c0.97-1.04,2.19-1.56,3.67-1.56
			c1.66,0,2.98,0.54,3.94,1.63c0.96,1.09,1.42,2.75,1.38,5h-7.41c0.02,0.87,0.26,1.54,0.72,2.03c0.46,0.48,1.02,0.72,1.71,0.72
			c0.46,0,0.85-0.12,1.17-0.38C119.88,174.23,120.12,173.83,120.28,173.28z M120.45,170.32c-0.02-0.85-0.24-1.49-0.66-1.93
			c-0.42-0.44-0.93-0.66-1.54-0.66c-0.65,0-1.18,0.23-1.6,0.7c-0.42,0.47-0.63,1.1-0.62,1.9H120.45z"/>
		<path class="st2" d="M137.43,165.73v2.34h-2.02v4.46c0,0.9,0.02,1.43,0.06,1.58c0.04,0.15,0.13,0.27,0.26,0.37
			c0.14,0.1,0.3,0.15,0.5,0.15c0.27,0,0.67-0.09,1.19-0.28l0.25,2.27c-0.69,0.29-1.47,0.44-2.34,0.44c-0.53,0-1.01-0.09-1.44-0.27
			c-0.43-0.18-0.74-0.41-0.94-0.69c-0.2-0.28-0.34-0.66-0.42-1.14c-0.06-0.34-0.09-1.03-0.09-2.06v-4.83h-1.36v-2.34h1.36v-2.2
			l2.97-1.71v3.91H137.43z"/>
		<path class="st2" d="M153.35,176.8v-1.66c-0.41,0.59-0.94,1.06-1.61,1.4c-0.66,0.34-1.36,0.51-2.1,0.51
			c-0.75,0-1.43-0.16-2.02-0.49c-0.6-0.33-1.03-0.79-1.29-1.38c-0.27-0.59-0.4-1.41-0.4-2.45v-7h2.96v5.09
			c0,1.56,0.05,2.51,0.16,2.86c0.11,0.35,0.31,0.63,0.59,0.83s0.65,0.31,1.1,0.31c0.5,0,0.96-0.14,1.36-0.41
			c0.4-0.27,0.67-0.61,0.82-1.02c0.15-0.41,0.22-1.4,0.22-2.99v-4.67h2.96v11.07H153.35z"/>
		<path class="st2" d="M165.6,173.87h2.96v2.09c0,0.85-0.07,1.52-0.22,2.01c-0.15,0.49-0.43,0.93-0.84,1.32s-0.93,0.69-1.56,0.92
			l-0.58-1.21c0.6-0.2,1.02-0.46,1.27-0.8c0.25-0.34,0.39-0.81,0.4-1.4h-1.43V173.87z"/>
		<path class="st0" d="M190.71,161.52h6.17c1.22,0,2.13,0.05,2.73,0.15c0.6,0.1,1.14,0.31,1.61,0.63c0.47,0.32,0.87,0.75,1.18,1.28
			c0.32,0.53,0.47,1.13,0.47,1.79c0,0.72-0.2,1.37-0.58,1.97c-0.39,0.6-0.92,1.05-1.58,1.34c0.94,0.27,1.66,0.73,2.17,1.39
			c0.5,0.65,0.76,1.42,0.76,2.3c0,0.69-0.16,1.37-0.49,2.03c-0.33,0.66-0.77,1.18-1.34,1.57c-0.57,0.39-1.26,0.63-2.09,0.72
			c-0.52,0.06-1.77,0.09-3.76,0.1h-5.25V161.52z M193.83,164.06v3.53h2.04c1.21,0,1.97-0.02,2.26-0.05
			c0.53-0.06,0.95-0.25,1.26-0.55c0.3-0.3,0.46-0.7,0.46-1.19c0-0.47-0.13-0.86-0.39-1.15c-0.26-0.3-0.65-0.47-1.17-0.54
			c-0.31-0.04-1.2-0.05-2.66-0.05H193.83z M193.83,170.14v4.09h2.88c1.12,0,1.84-0.03,2.14-0.09c0.46-0.08,0.84-0.29,1.13-0.61
			c0.29-0.32,0.44-0.76,0.44-1.3c0-0.46-0.11-0.85-0.34-1.17c-0.23-0.32-0.55-0.55-0.97-0.7c-0.42-0.15-1.35-0.22-2.76-0.22H193.83z
			"/>
		<path class="st0" d="M212.76,164.23v-2.71h2.96v2.71H212.76z M212.76,176.8v-11.07h2.96v11.07H212.76z"/>
		<path class="st0" d="M225.04,165.73h2.73v1.51c0.98-1.17,2.14-1.76,3.48-1.76c0.72,0,1.34,0.15,1.86,0.44
			c0.53,0.29,0.96,0.73,1.29,1.32c0.49-0.59,1.02-1.03,1.59-1.32s1.18-0.44,1.82-0.44c0.82,0,1.52,0.17,2.08,0.5
			c0.57,0.33,0.99,0.81,1.27,1.45c0.2,0.47,0.31,1.24,0.31,2.29v7.08h-2.96v-6.33c0-1.1-0.1-1.81-0.3-2.13
			c-0.27-0.42-0.69-0.63-1.26-0.63c-0.41,0-0.8,0.12-1.17,0.38c-0.37,0.25-0.63,0.62-0.79,1.1c-0.16,0.48-0.24,1.25-0.24,2.29v5.32
			h-2.96v-6.07c0-1.08-0.05-1.77-0.16-2.08c-0.1-0.31-0.27-0.55-0.49-0.7c-0.22-0.15-0.52-0.23-0.9-0.23
			c-0.46,0-0.87,0.12-1.23,0.37c-0.37,0.24-0.63,0.59-0.78,1.05c-0.16,0.46-0.24,1.22-0.24,2.28v5.38h-2.96V165.73z"/>
		<path class="st0" d="M253.15,169.11l-2.68-0.48c0.3-1.07,0.82-1.86,1.56-2.38c0.74-0.51,1.83-0.77,3.28-0.77
			c1.32,0,2.3,0.15,2.95,0.46c0.65,0.31,1.1,0.7,1.36,1.18c0.26,0.48,0.39,1.35,0.39,2.62l-0.03,3.42c0,0.97,0.05,1.69,0.14,2.15
			c0.09,0.46,0.27,0.96,0.53,1.49h-2.93c-0.08-0.19-0.17-0.48-0.28-0.86c-0.05-0.17-0.08-0.29-0.11-0.34
			c-0.5,0.49-1.05,0.85-1.62,1.09c-0.58,0.24-1.19,0.37-1.84,0.37c-1.15,0-2.06-0.31-2.72-0.93c-0.66-0.62-0.99-1.4-0.99-2.35
			c0-0.62,0.15-1.18,0.45-1.67c0.3-0.49,0.73-0.86,1.27-1.13c0.54-0.26,1.33-0.49,2.35-0.68c1.38-0.26,2.34-0.5,2.87-0.72v-0.29
			c0-0.56-0.14-0.96-0.42-1.2c-0.28-0.24-0.81-0.36-1.59-0.36c-0.53,0-0.94,0.1-1.23,0.31
			C253.57,168.23,253.33,168.59,253.15,169.11z M257.11,171.48c-0.38,0.13-0.98,0.27-1.8,0.45c-0.82,0.17-1.36,0.34-1.61,0.51
			c-0.39,0.27-0.58,0.61-0.58,1.03c0,0.41,0.15,0.76,0.46,1.06c0.31,0.3,0.7,0.45,1.18,0.45c0.53,0,1.04-0.17,1.53-0.52
			c0.36-0.26,0.59-0.59,0.71-0.97c0.08-0.25,0.12-0.73,0.12-1.43V171.48z"/>
		<path class="st0" d="M285.63,176.8v-6.43l-5.65-8.85h3.65l3.63,6.04l3.56-6.04h3.59l-5.67,8.87v6.41H285.63z"/>
		<path class="st0" d="M307.73,173.28l2.95,0.49c-0.38,1.07-0.98,1.88-1.79,2.44c-0.82,0.56-1.84,0.84-3.07,0.84
			c-1.94,0-3.38-0.63-4.32-1.89c-0.74-1.01-1.11-2.28-1.11-3.81c0-1.84,0.48-3.27,1.45-4.31c0.97-1.04,2.19-1.56,3.67-1.56
			c1.66,0,2.98,0.54,3.94,1.63c0.96,1.09,1.42,2.75,1.38,5h-7.41c0.02,0.87,0.26,1.54,0.72,2.03c0.46,0.48,1.02,0.72,1.71,0.72
			c0.46,0,0.85-0.12,1.17-0.38C307.33,174.23,307.57,173.83,307.73,173.28z M307.9,170.32c-0.02-0.85-0.24-1.49-0.66-1.93
			c-0.42-0.44-0.93-0.66-1.54-0.66c-0.65,0-1.18,0.23-1.6,0.7c-0.42,0.47-0.63,1.1-0.62,1.9H307.9z"/>
		<path class="st0" d="M324.88,165.73v2.34h-2.02v4.46c0,0.9,0.02,1.43,0.06,1.58c0.04,0.15,0.13,0.27,0.26,0.37s0.3,0.15,0.5,0.15
			c0.27,0,0.67-0.09,1.19-0.28l0.25,2.27c-0.69,0.29-1.47,0.44-2.34,0.44c-0.53,0-1.01-0.09-1.44-0.27
			c-0.43-0.18-0.74-0.41-0.94-0.69c-0.2-0.28-0.34-0.66-0.42-1.14c-0.06-0.34-0.09-1.03-0.09-2.06v-4.83h-1.36v-2.34h1.36v-2.2
			l2.97-1.71v3.91H324.88z"/>
		<path class="st0" d="M340.8,176.8v-1.66c-0.41,0.59-0.94,1.06-1.61,1.4c-0.66,0.34-1.36,0.51-2.1,0.51
			c-0.75,0-1.43-0.16-2.02-0.49c-0.6-0.33-1.03-0.79-1.29-1.38c-0.27-0.59-0.4-1.41-0.4-2.45v-7h2.96v5.09
			c0,1.56,0.05,2.51,0.16,2.86c0.11,0.35,0.31,0.63,0.59,0.83c0.29,0.21,0.65,0.31,1.1,0.31c0.5,0,0.96-0.14,1.36-0.41
			c0.4-0.27,0.67-0.61,0.82-1.02c0.15-0.41,0.22-1.4,0.22-2.99v-4.67h2.96v11.07H340.8z"/>
	</g>
</g>
</svg>
